<?xml version="1.0" standalone="no"?>
<!DOCTYPE svg PUBLIC "-//W3C//DTD SVG 1.1//EN" "http://www.w3.org/Graphics/SVG/1.1/DTD/svg11.dtd" >
<svg xmlns="http://www.w3.org/2000/svg" xmlns:xlink="http://www.w3.org/1999/xlink" version="1.1">
<metadata>
Created by FontForge 20170924 at Fri May 14 15:51:36 2004
 By www-data
ver 2.2Copyright (C) 2004 SQUARE ENIX CO., LTD. All Rights Reserved. Product Development Division-1 Takayuki Kurumada
</metadata>
<defs>
<font id="KH2ALLMENUItalic" horiz-adv-x="1127" >
  <font-face 
    font-family="KH2 ALL MENU"
    font-weight="400"
    font-style="italic"
    font-stretch="normal"
    units-per-em="1000"
    panose-1="0 0 4 0 0 0 0 0 0 0"
    ascent="800"
    descent="-200"
    x-height="799"
    cap-height="800"
    bbox="-40 -184 1333 1300"
    underline-thickness="20"
    underline-position="-143"
    slope="-11"
    unicode-range="U+0020-00F7"
  />
<missing-glyph horiz-adv-x="500" 
d="M63 0v1300h375v-1300h-375zM125 63h250v1175h-250v-1175z" />
    <glyph glyph-name=".notdef" horiz-adv-x="500" 
d="M63 0v1300h375v-1300h-375zM125 63h250v1175h-250v-1175z" />
    <glyph glyph-name=".null" horiz-adv-x="0" 
 />
    <glyph glyph-name="nonmarkingreturn" horiz-adv-x="500" 
 />
    <glyph glyph-name="space" unicode=" " horiz-adv-x="500" 
 />
    <glyph glyph-name="exclam" unicode="!" horiz-adv-x="642" 
d="M344 276q155 0 218 174l127 350h-244q-155 0 -218 -173l-128 -351h245zM0 3h248q155 0 218 174h-402z" />
    <glyph glyph-name="percent" unicode="%" horiz-adv-x="1229" 
d="M504 1q154 0 217 173l228 626h-245q-154 0 -217 -174l-228 -625h245zM1167 358h-194q-103 0 -140 -100l-82 -228q-2 -5 -2 -10q0 -18 22 -18h322l107 295q6 16 6 29q0 32 -39 32zM914 258q14 38 55 38h88l-84 -232h-129zM417 799h-195q-103 0 -139 -101l-83 -227
q-2 -6 -2 -11q0 -18 22 -18h322l107 295q6 17 6 29q0 33 -38 33zM164 698q14 39 54 39h89l-85 -233h-129z" />
    <glyph glyph-name="asterisk" unicode="*" horiz-adv-x="918" 
d="M830 749l-244 -179l-89 140q-40 63 -104 63q-56 0 -124 -50l-130 -96l167 -263l-257 -188q-49 -36 -49 -83q0 -27 18 -46t46 -19q30 0 63 24l258 189l94 -148q40 -63 104 -63q56 0 124 49l130 96l-172 271l244 179q49 36 49 83q0 28 -18 46.5t-46 18.5q-31 0 -64 -24z
" />
    <glyph glyph-name="plus" unicode="+" horiz-adv-x="866" 
d="M593 545l63 174q6 16 6 29q0 52 -64 52q-36 0 -67 -20q-35 -22 -49 -61l-64 -174h-139q-173 0 -230 -155l-49 -135h312l-63 -175q-6 -15 -6 -28q0 -53 65 -53q35 0 68.5 21.5t47.5 59.5l63 175h139q174 0 230 155l49 135h-312z" />
    <glyph glyph-name="comma" unicode="," horiz-adv-x="561" 
 />
    <glyph glyph-name="hyphen" unicode="-" horiz-adv-x="848" 
d="M49 390q57 155 231 155h626l-49 -135q-57 -155 -231 -155h-626z" />
    <glyph glyph-name="hyphen" unicode="&#x2010;" horiz-adv-x="848" 
d="M49 390q57 155 231 155h626l-49 -135q-57 -155 -231 -155h-626z" />
    <glyph glyph-name="period" unicode="." horiz-adv-x="561" 
 />
    <glyph glyph-name="slash" unicode="/" horiz-adv-x="846" 
d="M106 2h248q154 0 218 174h-403zM799 800h-248q-155 0 -218 -174h402zM49 388q56 154 229 154h624l-49 -135q-56 -154 -229 -154h-624z" />
    <glyph glyph-name="zero" unicode="0" 
d="M1059 800h-543q-151 0 -245.5 -69.5t-146.5 -213.5l-158 -436q-6 -16 -6 -29q0 -28 21.5 -41t53.5 -10h888l227 625q17 47 17 82q0 92 -108 92zM450 625h189l-416 -313l75 206q39 107 152 107zM285 176l411 310l-113 -310h-298z" />
    <glyph glyph-name="one" unicode="1" horiz-adv-x="1006" 
d="M696 800h-335q-155 0 -219 -175h246l-164 -450q-17 -47 -17 -82q0 -92 108 -92h245l228 626q17 46 17 81q0 92 -109 92z" />
    <glyph glyph-name="two" unicode="2" 
d="M1040 323l110 302q17 46 17 82q0 91 -109 91h-678q-154 0 -218 -174h290v0h298l-46 -126h-505q-39 0 -71 -28q-29 -24 -42 -60l-120 -330q-6 -16 -6 -29q0 -30 28 -44q14 -8 32 -8h821q49 0 85 42q34 38 34 80q0 53 -56 53h-729l54 149h811z" />
    <glyph glyph-name="three" unicode="3" 
d="M1059 800h-677q-155 0 -218 -175h586l-51 -141h-371q-48 0 -85 -42q-34 -38 -34 -80q0 -53 56 -53h371l-50 -135h-508q-48 0 -85 -42q-33 -38 -33 -80q0 -53 55 -53h907l229 627q16 47 16 82q0 92 -108 92z" />
    <glyph glyph-name="four" unicode="4" 
d="M989 800h-245l-140 -386h-298q-85 0 -85 56q0 21 11 51l72 198q5 16 5 29q0 51 -62 52q-36 0 -67 -20q-36 -22 -50 -61l-72 -197q-29 -80 -29 -135q0 -148 215 -148h296l-24 -66q-17 -47 -17 -82q0 -92 109 -92h245l228 627q17 47 17 82q0 92 -109 92z" />
    <glyph glyph-name="five" unicode="5" 
d="M942 479h-657l54 147h810q17 46 17 82q0 92 -108 92h-750q-39 0 -69.5 -26.5t-44.5 -65.5l-117 -323q-6 -16 -6 -29q0 -51 64 -52h4h5h490l-47 -128h-507q-48 0 -83.5 -40.5t-35.5 -82.5q0 -52 56 -52h906l111 304q17 47 17 82q0 92 -109 92z" />
    <glyph glyph-name="six" unicode="6" 
d="M940 479h-655l53 147h812q17 46 17 82q0 92 -108 92h-751q-39 0 -69.5 -26.5t-44.5 -65.5l-220 -604q-14 -27 -14 -51q0 -52 56 -52h904l111 304q17 47 17 82q0 92 -108 92zM585 176h-411l47 128h411z" />
    <glyph glyph-name="seven" unicode="7" horiz-adv-x="1083" 
d="M974 800h-545q-150 0 -244.5 -70t-146.5 -213l-32 -89q-6 -15 -6 -29q0 -52 63 -51q36 0 69.5 21.5t47.5 58.5l32 89q39 108 152 108h302l-164 -450q-17 -47 -17 -82q0 -92 108 -92h245l228 625q17 47 17 82q0 92 -109 92z" />
    <glyph glyph-name="eight" unicode="8" 
d="M1058 800h-232v0h-518q-39 0 -69.5 -27t-44.5 -65l-220 -606q-14 -26 -14 -50q0 -52 56 -52h906l228 627q17 46 17 82q0 91 -109 91zM599 174h-424l47 130h424zM709 479h-424l54 146h424z" />
    <glyph glyph-name="nine" unicode="9" 
d="M1010 800h-545q-150 0 -244.5 -70t-146.5 -213l-60 -165q-6 -16 -6 -29q0 -52 64 -52h320q49 0 86 42q33 38 33 80q0 53 -55 53h-234l26 71q39 108 152 108h302l-164 -450q-17 -47 -17 -82q0 -92 109 -92h244l228 625q17 47 17 82q0 92 -109 92z" />
    <glyph glyph-name="colon" unicode=":" horiz-adv-x="561" 
 />
    <glyph glyph-name="equal" unicode="=" horiz-adv-x="986" 
d="M762 290h-642q-48 0 -86 -42q-34 -39 -34 -81q0 -52 56 -52h643q48 0 85 42q34 39 34 81q0 52 -56 52zM936 547l50 135h-627q-174 0 -230 -155l-49 -135h626q174 0 230 155z" />
    <glyph glyph-name="question" unicode="?" horiz-adv-x="726" 
d="M0 4h247q154 0 218 174h-402zM285 626h195l-36 -99h-174q-73 0 -107 -77h-1l-64 -177h173l30 80h368l100 274q17 47 17 82q0 91 -108 91h-452q-154 0 -217 -174h276v0z" />
    <glyph glyph-name="A" unicode="A" horiz-adv-x="1121" 
d="M987 800h-542q-154 0 -217 -174l-228 -625h245q155 0 218 174l164 450h298q85 0 85 -56q0 -21 -11 -51l-39 -107h-232q-48 0 -84 -40.5t-36 -82.5q0 -52 56 -52h233l-57 -155q-5 -15 -5 -28q0 -52 64 -52q35 0 66 20q35 22 49 60l159 436q29 80 29 135q0 148 -215 148z
" />
    <glyph glyph-name="B" unicode="B" horiz-adv-x="1124" 
d="M990 799h-545q-154 0 -217 -174l-228 -625h245q155 0 218 174l164 450h301q85 0 85 -56q0 -21 -11 -51l-17 -46h-232q-48 0 -83.5 -40.5t-35.5 -82.5q0 -52 56 -52h232l-44 -121h-227q-48 0 -83.5 -40.5t-35.5 -82.5q0 -52 56 -52h301q37 -4 73 16q40 22 55 64l159 436
q28 79 28 135q0 148 -214 148z" />
    <glyph glyph-name="C" unicode="C" horiz-adv-x="1148" 
d="M969 175h-506l164 449h297v0h289q17 47 17 83q0 92 -108 92h-677q-154 0 -217 -174l-228 -625h905q49 0 86 42q34 39 34 81q0 52 -56 52z" />
    <glyph glyph-name="D" unicode="D" horiz-adv-x="1122" 
d="M987 799h-542q-154 0 -217 -174l-228 -625h245q155 0 218 174l164 450h298q85 0 85 -56q0 -21 -11 -51l-124 -342h-225q-48 0 -83.5 -40.5t-35.5 -82.5q0 -52 56 -52h300q36 -4 72 16q40 22 55 64l159 436q29 79 29 135q0 148 -215 148z" />
    <glyph glyph-name="E" unicode="E" horiz-adv-x="1148" 
d="M969 176h-506l49 135h368q48 0 85 42q34 39 34 81q0 52 -56 52h-367l50 137h298v0h289q17 47 17 82q0 93 -108 93h-677q-155 0 -218 -174l-227 -623h906q48 0 85 42q34 39 34 81q0 52 -56 52z" />
    <glyph glyph-name="F" unicode="F" horiz-adv-x="1148" 
d="M942 486h-365l50 137h586q17 47 17 82q0 93 -109 93h-676q-154 0 -218 -174l-227 -625h245q155 0 218 174l50 138h365q48 0 85 42q34 39 34 81q0 52 -55 52z" />
    <glyph glyph-name="G" unicode="G" horiz-adv-x="1149" 
d="M1072 475h-317q-48 0 -83.5 -40.5t-35.5 -82.5q0 -52 55 -52h230l-46 -124h-412l163 448h588q17 47 17 83q0 92 -108 92h-678q-155 0 -218 -174l-227 -624h906q37 0 70 28q29 24 42 60l111 305q6 15 6 28q0 53 -63 53z" />
    <glyph glyph-name="H" unicode="H" horiz-adv-x="1168" 
d="M820 486h-244l114 313h-245q-155 0 -218 -174l-227 -624h245q155 0 218 174l49 136h244q48 0 86 42q34 39 34 81q0 52 -56 52zM1072 719l-233 -638q-5 -15 -5 -28q0 -52 64 -52q35 0 68.5 21t47.5 59l232 638q6 16 6 29q0 52 -64 52q-36 0 -67 -20q-35 -23 -49 -61z" />
    <glyph glyph-name="I" unicode="I" horiz-adv-x="644" 
d="M245 1q155 0 218 174l227 625h-245q-154 0 -217 -174l-228 -625h245z" />
    <glyph glyph-name="J" unicode="J" horiz-adv-x="1169" 
d="M1073 719l-159 -437q-40 -108 -153 -108h-299q1 0 1 1l99 273h-245q-154 0 -218 -173l-99 -274h136q14 -2 27 -2h533q151 0 247 71q92 69 144 212l159 437q6 16 6 29q0 52 -62 52q-36 0 -68 -21q-36 -22 -49 -60z" />
    <glyph glyph-name="K" unicode="K" horiz-adv-x="1166" 
d="M245 1q155 0 218 174l226 623h-244q-155 0 -218 -174l-227 -623h245zM914 442l287 210q48 36 48 83q0 27 -17.5 46t-45.5 19q-31 0 -64 -24l-487 -358q-49 -35 -49 -82q0 -28 17.5 -46.5t45.5 -18.5h146q85 0 85 -57q0 -20 -11 -51l-30 -82q-6 -15 -6 -28q0 -52 64 -52
q35 0 68.5 21t47.5 59l30 82q28 79 28 134q0 128 -157 145z" />
    <glyph glyph-name="L" unicode="L" horiz-adv-x="955" 
d="M967 176h-504l225 619h-244q-155 0 -218 -174l-226 -620h904q48 0 85 42q34 39 34 81q0 52 -56 52z" />
    <glyph glyph-name="M" unicode="M" horiz-adv-x="1124" 
d="M550 81q-6 -15 -6 -28q0 -52 64 -52q35 0 68.5 21t47.5 59l149 409h-175zM990 800h-545q-154 0 -217 -174l-228 -625h245q155 0 218 174l164 450h301q85 0 85 -56q0 -21 -11 -51l-159 -437q-5 -15 -5 -28q0 -52 63 -52q36 0 67 20q35 22 49 60l159 436q28 80 28 135
q0 148 -214 148z" />
    <glyph glyph-name="N" unicode="N" horiz-adv-x="1122" 
d="M988 798h-542q-155 0 -218 -174l-228 -625h245q155 0 218 174l164 450h299q84 0 84 -56q0 -21 -10 -51l-159 -435q-5 -15 -5 -28q0 -52 64 -52q35 0 66 20q35 22 49 60l158 434q29 79 29 135q0 148 -214 148z" />
    <glyph glyph-name="O" unicode="O" horiz-adv-x="1124" 
d="M990 800h-545q-154 0 -218 -174l-227 -625h889q37 -4 73 16q40 22 55 64l159 436q28 80 28 135q0 148 -214 148zM627 625h301q85 0 85 -56q0 -21 -11 -51l-124 -342h-415z" />
    <glyph glyph-name="P" unicode="P" horiz-adv-x="1123" 
d="M989 800h-543q-155 0 -218 -174l-228 -627h245q155 0 218 174l164 452h300q85 0 85 -56q0 -21 -11 -51l-27 -75h-234q-48 0 -84 -40.5t-36 -82.5q0 -52 56 -52h321q35 0 68.5 21t47.5 60l62 168q28 80 28 135q0 148 -214 148z" />
    <glyph glyph-name="Q" unicode="Q" horiz-adv-x="1123" 
d="M989 800h-544q-154 0 -217 -174l-228 -625h519l-38 -104q-5 -16 -5 -29q0 -52 64 -52q35 0 68.5 21t47.5 60l38 104h194q37 -4 74.5 17t53.5 63l158 436q29 80 29 135q0 148 -214 148zM646 349l-63 -173h-120l164 449h300q85 0 85 -56q0 -21 -11 -51l-125 -342h-119
l63 173h-174z" />
    <glyph glyph-name="R" unicode="R" horiz-adv-x="1122" 
d="M987 799h-542q-155 0 -218 -174l-227 -622h245q155 0 218 173l163 448h299q85 0 85 -56q0 -21 -11 -51l-27 -74h-233q-48 0 -84 -40.5t-36 -82.5q0 -19 10 -35l163 -262q15 -24 46 -24q43 0 87 38.5t44 78.5q0 17 -8 30l-76 122h111q35 0 68.5 21t47.5 60l61 167
q29 80 29 135q0 148 -215 148z" />
    <glyph glyph-name="S" unicode="S" horiz-adv-x="1126" 
d="M1065 499h-508l46 126h296v0h290q17 47 17 82q0 93 -108 93h-676q-155 0 -218 -174l-110 -302h814l-55 -149h-734q-48 0 -83.5 -40.5t-35.5 -81.5q0 -52 56 -52h821q36 0 67 20q36 22 50 60l120 330q7 19 7 36q0 52 -56 52z" />
    <glyph glyph-name="T" unicode="T" horiz-adv-x="1053" 
d="M1127 625q17 47 17 82q0 93 -108 93h-678q-154 0 -218 -175h283q-1 -3 -3 -8l-224 -615h245q155 0 218 173l164 450h304z" />
    <glyph glyph-name="U" unicode="U" horiz-adv-x="1169" 
d="M1073 719l-158 -436q-40 -107 -154 -107h-298l227 623h-245q-155 0 -218 -173l-227 -625h696q151 0 247 71q93 69 145 212l159 435q6 16 6 30q0 51 -63 51q-35 0 -67 -20q-36 -23 -50 -61z" />
    <glyph glyph-name="V" unicode="V" horiz-adv-x="1162" 
d="M1118 774l-593 -438l169 464h-244q-79 0 -136.5 -47.5t-85.5 -125.5l-228 -626h249q34 0 66 10q23 5 72 41l810 599q48 35 48 82q0 28 -17.5 46.5t-45.5 18.5q-31 0 -64 -24z" />
    <glyph glyph-name="W" unicode="W" horiz-adv-x="1170" 
d="M900 578q5 15 5 28q0 53 -64 53q-35 0 -67 -21q-35 -22 -49 -60l-95 -261h175zM1074 719l-159 -436q-39 -108 -152 -108h-297l227 624h-248q-154 0 -217 -174l-228 -625h698q150 0 246 71q93 69 145 212l159 436q6 16 6 30q0 51 -63 51q-36 0 -68 -21q-35 -22 -49 -60z
" />
    <glyph glyph-name="X" unicode="X" horiz-adv-x="1191" 
d="M1014 157l-145 154h75q155 0 218 173l114 315h-244q-155 0 -218 -174l-67 -184l-320 340q-20 21 -52 17q-42 -6 -80.5 -44.5t-38.5 -75.5q0 -21 14 -35l144 -153h-82q-154 0 -217 -174l-115 -315h245q155 0 218 174l69 189l325 -345q16 -17 41 -17q43 0 86 40t43 80
q0 21 -13 35z" />
    <glyph glyph-name="Y" unicode="Y" horiz-adv-x="1146" 
d="M1047 719l-80 -220h-412l110 301h-245q-155 0 -218 -174l-110 -302h812l-55 -149h-730q-48 0 -83.5 -40.5t-35.5 -81.5q0 -52 56 -52h817q36 0 67 20q36 22 50 60l232 638q5 15 5 29q0 52 -64 52q-35 0 -67 -20q-35 -23 -49 -61z" />
    <glyph glyph-name="Z" unicode="Z" horiz-adv-x="1168" 
d="M804 297q151 0 247 70q92 69 144 212l51 139q6 16 6 30q0 51 -64 51h-745q-155 0 -219 -175h290v0h524l-16 -45q-40 -108 -153 -108h-544q-154 0 -218 -173l-107 -295h903q49 0 86 42q34 38 34 80q0 52 -56 52h-504l44 120h297z" />
    <glyph glyph-name="underscore" unicode="_" horiz-adv-x="561" 
 />
    <glyph glyph-name="a" unicode="a" horiz-adv-x="1121" 
d="M987 800h-542q-154 0 -217 -174l-228 -625h245q155 0 218 174l164 450h298q85 0 85 -56q0 -21 -11 -51l-39 -107h-232q-48 0 -84 -40.5t-36 -82.5q0 -52 56 -52h233l-57 -155q-5 -15 -5 -28q0 -52 64 -52q35 0 66 20q35 22 49 60l159 436q29 80 29 135q0 148 -215 148z
" />
    <glyph glyph-name="b" unicode="b" horiz-adv-x="1124" 
d="M990 799h-545q-154 0 -217 -174l-228 -625h245q155 0 218 174l164 450h301q85 0 85 -56q0 -21 -11 -51l-17 -46h-232q-48 0 -83.5 -40.5t-35.5 -82.5q0 -52 56 -52h232l-44 -121h-227q-48 0 -83.5 -40.5t-35.5 -82.5q0 -52 56 -52h301q37 -4 73 16q40 22 55 64l159 436
q28 79 28 135q0 148 -214 148z" />
    <glyph glyph-name="c" unicode="c" horiz-adv-x="1148" 
d="M969 175h-506l164 449h297v0h289q17 47 17 83q0 92 -108 92h-677q-154 0 -217 -174l-228 -625h905q49 0 86 42q34 39 34 81q0 52 -56 52z" />
    <glyph glyph-name="d" unicode="d" horiz-adv-x="1122" 
d="M987 799h-542q-154 0 -217 -174l-228 -625h245q155 0 218 174l164 450h298q85 0 85 -56q0 -21 -11 -51l-124 -342h-225q-48 0 -83.5 -40.5t-35.5 -82.5q0 -52 56 -52h300q36 -4 72 16q40 22 55 64l159 436q29 79 29 135q0 148 -215 148z" />
    <glyph glyph-name="e" unicode="e" horiz-adv-x="1148" 
d="M969 176h-506l49 135h368q48 0 85 42q34 39 34 81q0 52 -56 52h-367l50 137h298v0h289q17 47 17 82q0 93 -108 93h-677q-155 0 -218 -174l-227 -623h906q48 0 85 42q34 39 34 81q0 52 -56 52z" />
    <glyph glyph-name="f" unicode="f" horiz-adv-x="1148" 
d="M942 486h-365l50 137h586q17 47 17 82q0 93 -109 93h-676q-154 0 -218 -174l-227 -625h245q155 0 218 174l50 138h365q48 0 85 42q34 39 34 81q0 52 -55 52z" />
    <glyph glyph-name="g" unicode="g" horiz-adv-x="1149" 
d="M1072 475h-317q-48 0 -83.5 -40.5t-35.5 -82.5q0 -52 55 -52h230l-46 -124h-412l163 448h588q17 47 17 83q0 92 -108 92h-678q-155 0 -218 -174l-227 -624h906q37 0 70 28q29 24 42 60l111 305q6 15 6 28q0 53 -63 53z" />
    <glyph glyph-name="h" unicode="h" horiz-adv-x="1168" 
d="M820 486h-244l114 313h-245q-155 0 -218 -174l-227 -624h245q155 0 218 174l49 136h244q48 0 86 42q34 39 34 81q0 52 -56 52zM1072 719l-233 -638q-5 -15 -5 -28q0 -52 64 -52q35 0 68.5 21t47.5 59l232 638q6 16 6 29q0 52 -64 52q-36 0 -67 -20q-35 -23 -49 -61z" />
    <glyph glyph-name="i" unicode="i" horiz-adv-x="644" 
d="M245 1q155 0 218 174l227 625h-245q-154 0 -217 -174l-228 -625h245z" />
    <glyph glyph-name="j" unicode="j" horiz-adv-x="1169" 
d="M1073 719l-159 -437q-40 -108 -153 -108h-299q1 0 1 1l99 273h-245q-154 0 -218 -173l-99 -274h136q14 -2 27 -2h533q151 0 247 71q92 69 144 212l159 437q6 16 6 29q0 52 -62 52q-36 0 -68 -21q-36 -22 -49 -60z" />
    <glyph glyph-name="k" unicode="k" horiz-adv-x="1166" 
d="M245 1q155 0 218 174l226 623h-244q-155 0 -218 -174l-227 -623h245zM914 442l287 210q48 36 48 83q0 27 -17.5 46t-45.5 19q-31 0 -64 -24l-487 -358q-49 -35 -49 -82q0 -28 17.5 -46.5t45.5 -18.5h146q85 0 85 -57q0 -20 -11 -51l-30 -82q-6 -15 -6 -28q0 -52 64 -52
q35 0 68.5 21t47.5 59l30 82q28 79 28 134q0 128 -157 145z" />
    <glyph glyph-name="l" unicode="l" horiz-adv-x="968" 
d="M967 176h-504l225 619h-244q-155 0 -218 -174l-226 -620h904q48 0 85 42q34 39 34 81q0 52 -56 52z" />
    <glyph glyph-name="m" unicode="m" horiz-adv-x="1124" 
d="M550 81q-6 -15 -6 -28q0 -52 64 -52q35 0 68.5 21t47.5 59l149 409h-175zM990 800h-545q-154 0 -217 -174l-228 -625h245q155 0 218 174l164 450h301q85 0 85 -56q0 -21 -11 -51l-159 -437q-5 -15 -5 -28q0 -52 63 -52q36 0 67 20q35 22 49 60l159 436q28 80 28 135
q0 148 -214 148z" />
    <glyph glyph-name="n" unicode="n" horiz-adv-x="1122" 
d="M988 798h-542q-155 0 -218 -174l-228 -625h245q155 0 218 174l164 450h299q84 0 84 -56q0 -21 -10 -51l-159 -435q-5 -15 -5 -28q0 -52 64 -52q35 0 66 20q35 22 49 60l158 434q29 79 29 135q0 148 -214 148z" />
    <glyph glyph-name="o" unicode="o" horiz-adv-x="1124" 
d="M990 800h-545q-154 0 -218 -174l-227 -625h889q37 -4 73 16q40 22 55 64l159 436q28 80 28 135q0 148 -214 148zM627 625h301q85 0 85 -56q0 -21 -11 -51l-124 -342h-415z" />
    <glyph glyph-name="p" unicode="p" horiz-adv-x="1123" 
d="M989 800h-543q-155 0 -218 -174l-228 -627h245q155 0 218 174l164 452h300q85 0 85 -56q0 -21 -11 -51l-27 -75h-234q-48 0 -84 -40.5t-36 -82.5q0 -52 56 -52h321q35 0 68.5 21t47.5 60l62 168q28 80 28 135q0 148 -214 148z" />
    <glyph glyph-name="q" unicode="q" horiz-adv-x="1123" 
d="M989 800h-544q-154 0 -217 -174l-228 -625h519l-38 -104q-5 -16 -5 -29q0 -52 64 -52q35 0 68.5 21t47.5 60l38 104h194q37 -4 74.5 17t53.5 63l158 436q29 80 29 135q0 148 -214 148zM646 349l-63 -173h-120l164 449h300q85 0 85 -56q0 -21 -11 -51l-125 -342h-119
l63 173h-174z" />
    <glyph glyph-name="r" unicode="r" horiz-adv-x="1122" 
d="M987 799h-542q-155 0 -218 -174l-227 -622h245q155 0 218 173l163 448h299q85 0 85 -56q0 -21 -11 -51l-27 -74h-233q-48 0 -84 -40.5t-36 -82.5q0 -19 10 -35l163 -262q15 -24 46 -24q43 0 87 38.5t44 78.5q0 17 -8 30l-76 122h111q35 0 68.5 21t47.5 60l61 167
q29 80 29 135q0 148 -215 148z" />
    <glyph glyph-name="s" unicode="s" horiz-adv-x="1126" 
d="M1065 499h-508l46 126h296v0h290q17 47 17 82q0 93 -108 93h-676q-155 0 -218 -174l-110 -302h814l-55 -149h-734q-48 0 -83.5 -40.5t-35.5 -81.5q0 -52 56 -52h821q36 0 67 20q36 22 50 60l120 330q7 19 7 36q0 52 -56 52z" />
    <glyph glyph-name="t" unicode="t" horiz-adv-x="1053" 
d="M1127 625q17 47 17 82q0 93 -108 93h-678q-154 0 -218 -175h283q-1 -3 -3 -8l-224 -615h245q155 0 218 173l164 450h304z" />
    <glyph glyph-name="u" unicode="u" horiz-adv-x="1169" 
d="M1073 719l-158 -436q-40 -107 -154 -107h-298l227 623h-245q-155 0 -218 -173l-227 -625h696q151 0 247 71q93 69 145 212l159 435q6 16 6 30q0 51 -63 51q-35 0 -67 -20q-36 -23 -50 -61z" />
    <glyph glyph-name="v" unicode="v" horiz-adv-x="1162" 
d="M1118 774l-593 -438l169 464h-244q-79 0 -136.5 -47.5t-85.5 -125.5l-228 -626h249q34 0 66 10q23 5 72 41l810 599q48 35 48 82q0 28 -17.5 46.5t-45.5 18.5q-31 0 -64 -24z" />
    <glyph glyph-name="w" unicode="w" horiz-adv-x="1170" 
d="M900 578q5 15 5 28q0 53 -64 53q-35 0 -67 -21q-35 -22 -49 -60l-95 -261h175zM1074 719l-159 -436q-39 -108 -152 -108h-297l227 624h-248q-154 0 -217 -174l-228 -625h698q150 0 246 71q93 69 145 212l159 436q6 16 6 30q0 51 -63 51q-36 0 -68 -21q-35 -22 -49 -60z
" />
    <glyph glyph-name="x" unicode="x" horiz-adv-x="1191" 
d="M1014 157l-145 154h75q155 0 218 173l114 315h-244q-155 0 -218 -174l-67 -184l-320 340q-20 21 -52 17q-42 -6 -80.5 -44.5t-38.5 -75.5q0 -21 14 -35l144 -153h-82q-154 0 -217 -174l-115 -315h245q155 0 218 174l69 189l325 -345q16 -17 41 -17q43 0 86 40t43 80
q0 21 -13 35z" />
    <glyph glyph-name="y" unicode="y" horiz-adv-x="1146" 
d="M1047 719l-80 -220h-412l110 301h-245q-155 0 -218 -174l-110 -302h812l-55 -149h-730q-48 0 -83.5 -40.5t-35.5 -81.5q0 -52 56 -52h817q36 0 67 20q36 22 50 60l232 638q5 15 5 29q0 52 -64 52q-35 0 -67 -20q-35 -23 -49 -61z" />
    <glyph glyph-name="z" unicode="z" horiz-adv-x="1168" 
d="M804 297q151 0 247 70q92 69 144 212l51 139q6 16 6 30q0 51 -64 51h-745q-155 0 -219 -175h290v0h524l-16 -45q-40 -108 -153 -108h-544q-154 0 -218 -173l-107 -295h903q49 0 86 42q34 38 34 80q0 52 -56 52h-504l44 120h297z" />
    <glyph glyph-name="Adieresis" unicode="&#xc4;" horiz-adv-x="1138" 
d="M990 803h-544q-155 0 -219 -174v-1v0v0l-228 -627h246q155 0 219 174l164 453h300q86 0 86 -57q0 -21 -11 -51l-40 -108h-233q-48 0 -86 -42q-34 -39 -34 -81q0 -52 56 -52h234l-57 -156q-6 -15 -6 -29q0 -52 64 -52q36 0 67 20q35 23 49 61l160 438q29 80 29 136
q0 148 -216 148zM751 964l73 199q6 16 6 30q0 51 -64 51q-35 0 -68 -20q-36 -23 -50 -61l-72 -199q-6 -16 -6 -29q0 -52 64 -52q35 0 69.5 21.5t47.5 59.5zM1093 964l73 199q5 16 5 30q0 51 -63 51q-36 0 -68 -20q-36 -23 -50 -61l-72 -199q-6 -16 -6 -29q0 -52 63 -52
q36 0 70 21.5t48 59.5z" />
    <glyph glyph-name="Aring" unicode="&#xc5;" horiz-adv-x="1121" 
 />
    <glyph glyph-name="aacute" unicode="&#xe1;" horiz-adv-x="1130" 
d="M989 801h-543q-152 0 -218 -174v-1h-1v0l-227 -625h245q155 0 219 173l164 452h299q85 0 85 -57q0 -21 -11 -51l-39 -107h-233q-48 0 -83.5 -40.5t-35.5 -82.5q0 -52 55 -52h233l-56 -155q-6 -16 -6 -29q0 -52 64 -52q35 0 68.5 21t47.5 60l159 437q29 79 29 135
q0 148 -215 148zM778 904l222 163v0l37 27q49 36 49 82q0 28 -18 46.5t-46 18.5q-31 0 -63 -23l-14 -10l-246 -181q-49 -36 -49 -82q0 -28 18 -46.5t46 -18.5q31 0 64 24z" />
    <glyph glyph-name="agrave" unicode="&#xe0;" horiz-adv-x="1112" 
d="M983 796h-539q-152 0 -217 -173l-1 -1v0v0l-226 -621h244q154 0 217 172l163 449h298q84 0 84 -56q0 -21 -11 -51l-39 -107h-231q-48 0 -83.5 -40t-35.5 -82q0 -51 56 -51h231l-56 -155q-6 -15 -6 -28q0 -52 64 -52q35 0 66 20q35 22 49 60l158 435q29 79 29 134
q0 147 -214 147zM819 903q15 -24 46 -24q43 0 86.5 39t43.5 79q0 16 -8 29l-117 185q-16 24 -46 24q-43 0 -87 -38.5t-44 -79.5q0 -16 9 -29z" />
    <glyph glyph-name="acircumflex" unicode="&#xe2;" horiz-adv-x="1133" 
d="M991 797h-544q-155 0 -218 -174l-1 -1v-1v0l-228 -626h246q155 0 219 174l164 452h300q85 0 85 -56q0 -21 -11 -52l-39 -107h-233q-49 0 -84.5 -40.5t-35.5 -82.5q0 -52 56 -52h233l-56 -156q-6 -15 -6 -28q0 -53 64 -53q35 0 68.5 21.5t47.5 59.5l159 438q29 80 29 135
q0 149 -215 149zM630 902l146 107q58 43 97 43q36 0 61 -39l69 -109q15 -24 46 -24q43 0 87 38t44 78q0 17 -8 31l-70 109q-65 102 -162 102q-100 0 -245 -106l1 -1l-145 -106q-48 -35 -48 -82q0 -28 17.5 -46.5t45.5 -18.5q31 0 64 24z" />
    <glyph glyph-name="adieresis" unicode="&#xe4;" horiz-adv-x="1138" 
d="M990 803h-544q-155 0 -219 -174v-1v0v0l-228 -627h246q155 0 219 174l164 453h300q86 0 86 -57q0 -21 -11 -51l-40 -108h-233q-48 0 -86 -42q-34 -39 -34 -81q0 -52 56 -52h234l-57 -156q-6 -15 -6 -29q0 -52 64 -52q36 0 67 20q35 23 49 61l160 438q29 80 29 136
q0 148 -216 148zM751 964l73 199q6 16 6 30q0 51 -64 51q-35 0 -68 -20q-36 -23 -50 -61l-72 -199q-6 -16 -6 -29q0 -52 64 -52q35 0 69.5 21.5t47.5 59.5zM1093 964l73 199q5 16 5 30q0 51 -63 51q-36 0 -68 -20q-36 -23 -50 -61l-72 -199q-6 -16 -6 -29q0 -52 63 -52
q36 0 70 21.5t48 59.5z" />
    <glyph glyph-name="atilde" unicode="&#xe3;" horiz-adv-x="1148" 
d="M989 801h-543q-155 0 -218 -174l-228 -626h245q155 0 219 174l164 451h299q85 0 85 -57q0 -21 -11 -51l-39 -107h-233q-48 0 -83.5 -40.5t-35.5 -82.5q0 -52 56 -52h232l-56 -155q-6 -16 -6 -29q0 -52 64 -52q35 0 68.5 21t47.5 60l159 437q29 79 29 135q0 148 -215 148z
M1274 1213q-53 0 -95 -51q-32 -38 -86 -59l-58 -11q-46 3 -88 41q-77 69 -179 69q-37 0 -76 -9q-130 -32 -238 -148q-37 -40 -37 -76q0 -24 15.5 -39.5t42.5 -15.5q54 0 96 51q31 38 85 60l59 10q46 -3 88 -40q77 -70 178 -70q38 0 76 9q131 33 239 148q37 40 37 76
q0 25 -16 40t-43 15z" />
    <glyph glyph-name="Agrave" unicode="&#xc0;" horiz-adv-x="1112" 
d="M983 796h-539q-152 0 -217 -173l-1 -1v0v0l-226 -621h244q154 0 217 172l163 449h298q84 0 84 -56q0 -21 -11 -51l-39 -107h-231q-48 0 -83.5 -40t-35.5 -82q0 -51 56 -51h231l-56 -155q-6 -15 -6 -28q0 -52 64 -52q35 0 66 20q35 22 49 60l158 435q29 79 29 134
q0 147 -214 147zM819 903q15 -24 46 -24q43 0 86.5 39t43.5 79q0 16 -8 29l-117 185q-16 24 -46 24q-43 0 -87 -38.5t-44 -79.5q0 -16 9 -29z" />
    <glyph glyph-name="Atilde" unicode="&#xc3;" horiz-adv-x="1148" 
d="M989 801h-543q-155 0 -218 -174l-228 -626h245q155 0 219 174l164 451h299q85 0 85 -57q0 -21 -11 -51l-39 -107h-233q-48 0 -83.5 -40.5t-35.5 -82.5q0 -52 56 -52h232l-56 -155q-6 -16 -6 -29q0 -52 64 -52q35 0 68.5 21t47.5 60l159 437q29 79 29 135q0 148 -215 148z
M1274 1213q-53 0 -95 -51q-32 -38 -86 -59l-58 -11q-46 3 -88 41q-77 69 -179 69q-37 0 -76 -9q-130 -32 -238 -148q-37 -40 -37 -76q0 -24 15.5 -39.5t42.5 -15.5q54 0 96 51q31 38 85 60l59 10q46 -3 88 -40q77 -70 178 -70q38 0 76 9q131 33 239 148q37 40 37 76
q0 25 -16 40t-43 15z" />
    <glyph glyph-name="divide" unicode="&#xf7;" horiz-adv-x="561" 
 />
    <glyph glyph-name="Acircumflex" unicode="&#xc2;" horiz-adv-x="1133" 
d="M991 797h-544q-155 0 -218 -174l-1 -1v-1v0l-228 -626h246q155 0 219 174l164 452h300q85 0 85 -56q0 -21 -11 -52l-39 -107h-233q-49 0 -84.5 -40.5t-35.5 -82.5q0 -52 56 -52h233l-56 -156q-6 -15 -6 -28q0 -53 64 -53q35 0 68.5 21.5t47.5 59.5l159 438q29 80 29 135
q0 149 -215 149zM630 902l146 107q58 43 97 43q36 0 61 -39l69 -109q15 -24 46 -24q43 0 87 38t44 78q0 17 -8 31l-70 109q-65 102 -162 102q-100 0 -245 -106l1 -1l-145 -106q-48 -35 -48 -82q0 -28 17.5 -46.5t45.5 -18.5q31 0 64 24z" />
    <glyph glyph-name="Aacute" unicode="&#xc1;" horiz-adv-x="1130" 
d="M989 801h-543q-152 0 -218 -174v-1h-1v0l-227 -625h245q155 0 219 173l164 452h299q85 0 85 -57q0 -21 -11 -51l-39 -107h-233q-48 0 -83.5 -40.5t-35.5 -82.5q0 -52 55 -52h233l-56 -155q-6 -16 -6 -29q0 -52 64 -52q35 0 68.5 21t47.5 60l159 437q29 79 29 135
q0 148 -215 148zM778 904l222 163v0l37 27q49 36 49 82q0 28 -18 46.5t-46 18.5q-31 0 -63 -23l-14 -10l-246 -181q-49 -36 -49 -82q0 -28 18 -46.5t46 -18.5q31 0 64 24z" />
  </font>
</defs>
</svg>
